<svg xmlns="http://www.w3.org/2000/svg" width="979" height="1024" viewBox="0 0 979 1024"><title/><path fill="#fff" d="M692.074 89.043c112.75 0 192.283 69.628 209.433 163.603 7.013 38.704 10.34 90.513 6.944 143.476-6.027 94.193-31.922 188.542-81.37 275.697-87.23 153.865-204.504 240.21-347.59 254.902l-13.93 1.198-9.736.567c-100.37 4.63-187.188-29.384-186.407-114.32.466-44.61 19.413-68.13 66.428-99.17l22.683-14.582c4.305-2.817 7.572-5.057 10.895-7.466 61.75-44.79 92.035-118.677 103.872-229.686l1.44-14.69c2.007-22.353 3.123-40.522 4.29-70.28l2.872-80.625.228-5.095c5.5-119.152 93.53-203.533 209.948-203.533zm0 44.522c-89.503 0-156.477 61.337-164.82 151.62l-.877 14.432-3.595 97.72c-.97 21.032-2.038 36.685-3.702 55.218-11.743 130.8-46.204 220.356-123.52 276.437l-7.9 5.525-18.81 12.155c-41.85 26.564-54.627 40.675-54.912 67.932-.444 48.293 62.354 72.764 139.55 69.413l8.97-.51 13.284-1.158c127.48-13.39 232.286-90.81 312.612-232.495 45.945-80.98 70.05-168.81 75.667-256.58 3.158-49.255.064-97.453-6.316-132.664-13.362-73.217-74.848-127.045-165.63-127.045zM208.21 166.437c85.32 0 144.803 53.803 159.535 132.28 13.93 74.785-8 223.256-44.768 292.98-25.388 48.168-67.306 64.386-114.745 64.386-44.67 0-84.41-14.352-110.112-56.208l-4.652-8.174-5.15-10.473c-33.638-73.215-52.85-211.277-39.54-282.5 14.564-78.404 74.14-132.29 159.433-132.29zm0 44.522c-63.02 0-104.88 37.86-115.665 95.923-11.54 61.748 6.273 189.62 35.58 254.367l4.722 9.68c15.98 30.308 42.675 40.63 75.384 40.63 32.685 0 59.396-10.333 75.363-40.625 32.064-60.803 52.488-199.08 40.39-264.033-10.914-58.133-52.715-95.942-115.772-95.942z"/></svg>