<svg width="169" height="40" viewBox="0 0 169 40" fill="none" xmlns="http://www.w3.org/2000/svg">
<path d="M45.5582 0.92627L38.6348 33.7368H31.0552L35.5415 12.3673L21.2163 32.1352H19.7327L15.631 12.5488L7.57956 33.7368H0L12.4731 0.92627H20.085L24.0704 20.0796L37.9172 0.92627H45.555H45.5582ZM50.5681 26.9353C49.7471 29.5273 51.596 30.6545 53.7648 30.6545C55.1385 30.6545 56.6382 30.2023 57.6726 29.384C57.7566 28.9573 57.8536 28.5815 57.9311 28.2886L59.7735 22.1875C54.9833 21.3151 51.4182 24.2955 50.5714 26.9353M51.6445 10.0396C54.5793 9.36455 57.7534 8.88372 60.5848 8.88372C66.3996 8.88372 70.7534 10.9153 68.5458 17.4589L65.3071 28.2886C64.9935 29.4254 64.3342 31.7913 64.5119 33.7368H57.4431C57.3202 33.065 57.3041 32.3421 57.3526 31.6289C52.0259 35.6219 40.6323 35.4054 43.2924 26.983C44.9441 21.85 51.3956 17.7837 60.7399 19.2421L61.548 16.7488C62.9637 12.0807 55.8722 12.9532 50.2029 14.73L51.6477 10.0396M76.2514 26.9353C75.4336 29.5273 77.2824 30.6545 79.4513 30.6545C80.825 30.6545 82.3247 30.2023 83.359 29.384C83.4463 28.9573 83.5368 28.5815 83.6176 28.2886L85.4567 22.1875C80.6698 21.3151 77.1014 24.2955 76.2546 26.9353M77.3342 10.0396C80.269 9.36455 83.4431 8.88372 86.2713 8.88372C92.086 8.88372 96.4366 10.9153 94.2322 17.4589L90.9871 28.2886C90.6768 29.4254 90.0206 31.7913 90.1984 33.7368H83.1295C83.0035 33.065 82.9905 32.3421 83.0358 31.6289C77.7123 35.6219 66.3123 35.4054 68.9789 26.983C70.6241 21.85 77.0821 17.7837 86.4264 19.2421L87.2377 16.7488C88.6502 12.0807 81.5587 12.9532 75.8829 14.73L77.3342 10.0396ZM103.486 0.92627L93.854 33.7368H101.379L111.014 0.92627H103.486ZM123.807 13.3003C116.916 13.3003 111.101 29.9221 118.781 29.9221C125.459 29.9221 131.506 13.3003 123.807 13.3003ZM108.309 21.6016C110.597 14.3065 117.078 8.88691 125.09 8.88691C131.555 8.88691 136.775 13.0455 134.279 21.3819C132.04 28.8554 125.578 34.1412 117.446 34.1412C108.289 34.1412 106.214 28.2472 108.309 21.5985M160.803 0.92627L146.656 15.7745L142.554 9.29131H134.955L142.092 20.5699L124.457 39.0737H132.65L145.36 25.738L150.418 33.7368H158.014L149.927 20.9425L169 0.92627H160.803Z" fill="#231F20"/>
</svg>
